<?xml version="1.0" encoding="UTF-8"?>
<svg id="Layer_1" data-name="Layer 1" xmlns="http://www.w3.org/2000/svg" viewBox="0 0 565.73 158.73">
  <path d="M9.6,120.78V39.38h28.09c5.33,0,9.84.41,13.74,1.44,3.69,1.03,6.97,2.46,9.23,4.31,2.46,1.85,4.1,4.1,5.33,6.77,1.03,2.67,1.64,5.74,1.64,9.02s-.21,3.69-.82,5.54c-.62,1.64-1.44,3.28-2.67,4.92-1.23,1.44-2.67,2.87-4.51,4.1-1.85,1.23-3.9,2.26-6.56,3.08,11.28,2.46,16.81,8.61,16.81,18.04s-.62,6.56-2.05,9.64c-1.23,2.87-3.28,5.54-5.74,7.59-2.46,2.05-5.54,3.69-9.23,4.92s-7.79,1.85-12.51,1.85H9.6v.21ZM24.78,74.65h12.1c5.13,0,9.02-1.03,11.69-2.87,2.67-1.85,3.9-4.92,3.9-9.02s-1.23-7.18-3.69-9.02c-2.46-1.85-6.15-2.67-11.28-2.67h-12.92v23.58h.21ZM24.78,85.1v23.78h15.38c2.87,0,5.13-.41,6.97-1.03s3.49-1.64,4.51-2.67c1.23-1.03,2.05-2.46,2.46-3.9.41-1.44.82-3.08.82-4.72s-.21-3.28-.82-4.72c-.62-1.44-1.44-2.67-2.67-3.69-1.23-1.03-2.67-1.85-4.51-2.26-1.85-.62-4.1-.82-6.77-.82h-15.38Z"/>
  <path d="M82.18,120.78v-57.82h8.2c1.44,0,2.46.21,3.08.82s1.03,1.44,1.03,2.67l.82,6.97c2.05-3.49,4.51-6.36,7.18-8.41,2.87-2.05,5.95-3.08,9.43-3.08s5.13.62,7.18,2.05l-1.85,10.46c0,.62-.41,1.23-.82,1.44s-.82.41-1.44.41-1.23,0-2.26-.41c-1.03-.21-2.26-.41-3.9-.41-2.87,0-5.33.82-7.38,2.46-2.05,1.64-3.9,3.9-5.33,6.97v35.88h-13.94Z"/>
  <path d="M145.13,46.35c0,1.23-.21,2.26-.82,3.28-.41,1.03-1.23,2.05-2.05,2.67-.82.82-1.85,1.44-2.87,1.85-1.03.41-2.26.62-3.49.62s-2.26-.21-3.49-.62c-1.03-.41-2.05-1.03-2.87-1.85s-1.44-1.64-1.85-2.67-.62-2.26-.62-3.28.21-2.46.62-3.49,1.03-2.05,1.85-2.87,1.64-1.44,2.87-1.85c1.03-.41,2.26-.62,3.49-.62s2.46.21,3.49.62c1.03.41,2.05,1.03,2.87,1.85s1.44,1.64,2.05,2.87c.41,1.03.82,2.26.82,3.49ZM143.08,63.17v57.82h-13.94v-57.82h13.94Z"/>
  <path d="M199.26,75.26c-.41.62-.82,1.03-1.23,1.23s-1.03.41-1.64.41-1.44-.21-2.05-.62c-.62-.41-1.44-1.03-2.46-1.44-1.03-.62-2.05-1.03-3.28-1.44s-2.87-.62-4.72-.62-4.51.41-6.36,1.23-3.28,2.05-4.51,3.9c-1.23,1.64-2.05,3.69-2.67,5.95s-.82,4.92-.82,8,.41,5.74,1.03,8.2,1.64,4.51,2.87,6.15,2.67,2.87,4.51,3.69c1.85.82,3.69,1.23,5.95,1.23s4.1-.21,5.33-.82c1.44-.62,2.46-1.23,3.49-1.85s1.85-1.23,2.46-1.85c.62-.62,1.44-.82,2.26-.82s2.05.41,2.46,1.23l3.9,5.13c-1.64,1.85-3.28,3.28-4.92,4.51s-3.69,2.26-5.54,2.87c-1.85.82-3.9,1.23-5.95,1.64-2.05.21-4.1.41-6.15.41-3.49,0-6.97-.62-10.05-2.05-3.08-1.23-5.95-3.28-8.2-5.74-2.26-2.46-4.31-5.74-5.54-9.43-1.44-3.69-2.05-8-2.05-12.71s.62-8.2,1.85-11.89,3.08-6.77,5.33-9.43c2.46-2.67,5.33-4.72,8.82-6.15,3.49-1.44,7.59-2.26,12.1-2.26s8.2.62,11.28,2.05c3.28,1.44,6.15,3.28,8.82,5.95l-3.69,5.13h0l-.62.2Z"/>
  <path d="M226.53,37.13v47.98h2.67c1.03,0,1.64,0,2.26-.41.62-.21,1.03-.82,1.64-1.44l14.35-17.63c.62-.82,1.23-1.44,2.05-1.85.62-.41,1.64-.62,2.87-.62h12.71l-18.04,21.53c-.62.82-1.23,1.44-2.05,2.26-.62.62-1.44,1.23-2.26,1.64.82.62,1.44,1.23,2.05,2.05s1.23,1.64,1.85,2.46l19.27,28.09h-12.51c-1.03,0-2.05,0-2.67-.62-.82-.41-1.44-1.03-2.05-1.85l-14.76-21.94c-.62-.82-1.03-1.44-1.64-1.64-.62-.21-1.44-.41-2.46-.41h-3.08v26.45h-13.94V37.54h13.94l-.21-.41Z"/>
  <path d="M321.05,94.33c.41,1.03.82,2.05,1.23,3.08.41-1.03.82-2.05,1.23-3.08.41-1.03.82-1.85,1.44-2.87l27.27-49.62c.41-.82,1.03-1.44,1.44-1.64.62,0,1.23-.21,2.26-.21h8v80.58h-9.64V56.2l-27.68,50.44c-1.03,1.64-2.26,2.46-3.9,2.46h-1.64c-1.64,0-3.08-.82-3.9-2.46l-28.29-50.64c0,1.03,0,1.85.21,2.87v61.92h-9.64V40.2h8c1.03,0,1.64,0,2.26.21.62,0,1.03.62,1.44,1.64l27.88,49.62c.62.82,1.03,1.85,1.44,2.87h0l.62-.2Z"/>
  <path d="M424.59,94.33c.41,1.03.82,2.05,1.23,3.08.41-1.03.82-2.05,1.23-3.08s.82-1.85,1.44-2.87l27.27-49.62c.41-.82,1.03-1.44,1.44-1.64.62,0,1.23-.21,2.26-.21h8v80.58h-9.64V56.2l-27.68,50.44c-1.03,1.64-2.26,2.46-3.9,2.46h-1.64c-1.64,0-3.08-.82-3.9-2.46l-28.29-50.64c0,1.03,0,1.85.21,2.87v61.92h-9.64V40.2h8c1.03,0,1.64,0,2.26.21.62,0,1.03.62,1.44,1.64l27.88,49.62c.62.82,1.03,1.85,1.44,2.87h0l.62-.2Z"/>
  <path d="M561.96,80.39c0,5.95-1.03,11.69-2.87,16.61-1.85,5.13-4.51,9.43-8.2,13.12-3.49,3.69-7.59,6.56-12.51,8.41-4.92,2.05-10.25,3.08-16.2,3.08s-11.28-1.03-16.2-3.08-9.02-4.92-12.51-8.41c-3.49-3.69-6.15-8-8.2-13.12-1.85-5.13-2.87-10.66-2.87-16.61s1.03-11.48,2.87-16.61,4.51-9.43,8.2-13.12c3.49-3.69,7.59-6.56,12.51-8.61,4.92-2.05,10.25-3.08,16.2-3.08s11.28,1.03,16.2,3.08c4.92,2.05,9.02,4.92,12.51,8.61,3.49,3.69,6.15,8,8.2,13.12,1.85,5.13,2.87,10.66,2.87,16.61ZM550.89,80.39c0-4.92-.62-9.43-2.05-13.33s-3.28-7.18-5.74-10.05c-2.46-2.67-5.54-4.72-9.02-6.36-3.49-1.44-7.38-2.26-11.89-2.26s-8.2.82-11.69,2.26-6.56,3.49-9.02,6.36c-2.46,2.67-4.51,6.15-5.74,10.05-1.44,3.9-2.05,8.41-2.05,13.33s.62,9.43,2.05,13.33,3.28,7.18,5.74,10.05c2.46,2.67,5.54,4.72,9.02,6.36,3.49,1.44,7.38,2.26,11.69,2.26s8.2-.82,11.89-2.26c3.49-1.44,6.56-3.49,9.02-6.36,2.46-2.67,4.31-5.95,5.74-10.05,1.44-3.9,2.05-8.41,2.05-13.33Z"/>
</svg>